<svg xmlns="http://www.w3.org/2000/svg" xmlns:xlink="http://www.w3.org/1999/xlink" version="1.1" x="0px" y="0px" viewBox="0 0 144 144">
    <circle cx="72" cy="72" r="70" fill="#64ccda" />
    <circle cx="72" cy="72" r="56" fill="#fff" />
    <path id="cross" fill="#c0392b" stroke="#fff" stroke-width="2" transform="translate(-22, -11)" d="M 59.51,85.54 C 59.51,85.54 56.79,44.90 56.79,44.90 56.79,44.90 73.65,47.61 73.65,47.61 73.65,47.61 73.55,28.51 73.55,28.51 73.55,28.51 56.88,31.22 56.88,31.22 56.88,31.22 59.60,14.65 59.60,14.65 59.60,14.65 40.40,14.65 40.40,14.65 40.40,14.65 43.12,31.22 43.12,31.22 43.12,31.22 26.54,28.51 26.54,28.51 26.54,28.51 26.45,47.61 26.45,47.61 26.45,47.61 43.30,44.90 43.30,44.90 43.30,44.90 40.49,85.54 40.49,85.54 40.49,85.54 59.51,85.54 59.51,85.54 Z" />

    <path id="india" fill="#8f4426" transform="translate(28, 30)" d="M89.604,26.82c0.014-0.158-0.027-0.355,0.049-0.426c0.549-0.508-0.12-0.612-0.28-0.872  c-0.258-0.421-0.488-0.069-0.697,0.066c-0.217,0.14-0.433,0.306-0.594,0.505c-0.522,0.642-1.207,0.777-1.843,0.366  c-0.878-0.568-1.348-0.103-1.808,0.515c-0.561,0.755-1.156,1.447-2.14,1.652c-0.107,0.022-0.265,0.098-0.287,0.179  c-0.254,0.963-1.273,1.261-1.754,2.062c-0.494,0.823-1.493,0.958-2.396,1.108c-0.131,0.022-0.323-0.263-0.393,0.048  c-0.048,0.213-0.114,0.479,0.124,0.637c0.115,0.076,0.277,0.078,0.411,0.129c0.607,0.233,1.159,1.328,1.005,1.962  c-0.03,0.124-0.081,0.264-0.197,0.216c-0.492-0.208-0.889,0.148-1.336,0.201c-1.129,0.134-2.264,0.188-3.388,0.274  c-1.033,0.079-2.042,0.217-3.076,0.068c-0.766-0.111-1.195-0.547-1.216-1.311c-0.015-0.541-0.208-1.068-0.043-1.631  c0.12-0.412-0.162-0.867-0.544-0.818c-0.476,0.061-1.238,0.139-1.294,0.707c-0.128,1.304-0.224,2.63-0.04,3.941  c0.121,0.863-0.34,1.039-1.041,1.022c-0.702-0.016-1.477-0.323-2.05-0.253c-1.992,0.243-3.649-0.707-5.437-1.164  c-0.425-0.109-0.878-0.373-1.064-0.827c-0.141-0.344-0.417-0.411-0.684-0.58c-0.876-0.555-1.731-0.16-2.588-0.035  c-0.704,0.102-1.44,0.197-1.963-0.328c-0.293-0.294-0.589-0.365-0.922-0.512c-0.97-0.429-2.115-0.485-2.931-1.207  c-0.727-0.643-1.548-1.076-2.415-1.461c-0.419-0.186-0.839-0.374-1.241-0.594c-0.383-0.21-0.541-0.46-0.401-0.983  c0.43-1.606,1.012-3.087,2.472-3.96c-0.073-0.293-0.278-0.331-0.428-0.373c-1.506-0.416-2.35-1.899-3.832-2.365  c-0.275-0.086-0.537-0.371-0.695-0.631c-0.231-0.38-0.378-0.629-0.837-0.237c-0.266,0.227-0.404-0.045-0.442-0.299  c-0.178-1.195-0.43-2.364-0.964-3.463c-0.16-0.33,0.128-0.533,0.384-0.683c0.204-0.119,0.38-0.109,0.466,0.166  c0.26,0.831,0.704,0.804,1.261,0.267c0.189-0.182,0.405-0.305,0.677-0.361c0.21-0.043,0.369-0.239,0.269-0.464  c-0.232-0.524-0.41-1.061-0.583-1.607c-0.133-0.42-0.795-0.384-1.078-0.803c-0.348-0.514,0.455-0.851,0.141-1.326  c-0.015-0.023-0.015-0.056-0.023-0.084c-0.147-0.505,0.136-0.79,0.562-0.701c0.786,0.163,0.97-0.229,1.044-0.864  c0.018-0.156,0.119-0.356,0.245-0.436c0.84-0.538,1.37-1.272,1.58-2.253c0.117-0.547,0.503-1.072-0.035-1.616  c-0.688-0.695-1.793-1.139-2.454-0.985c-1.106,0.257-2.347,0.29-3.37,1.083c-0.508,0.394-1.484,0.972-2.011-0.263  c-0.055-0.129-0.349-0.204-0.539-0.218c-0.642-0.051-1.048-0.365-1.337-0.94c-0.22-0.437-0.551-0.84-0.996-1.068  c-0.688-0.352-1.198-0.905-1.75-1.415c-0.586-0.543-0.98-1.478-2.072-0.996c-0.096,0.042-0.261-0.088-0.398-0.12  c-0.925-0.217-1.618,0.6-2.503,0.565c0.018,0.769-0.529,0.436-0.827,0.364c-0.464-0.113-0.876-0.092-1.22,0.22  c-0.492,0.448-0.967,0.919-1.41,1.416c-0.468,0.524-0.289,1.298,0.334,1.34c0.624,0.042,1,0.358,1.389,0.759  c0.441,0.455,1.38,0.378,1.394,1.304c0,0.033,0.153,0.056,0.226,0.098c0.696,0.402,0.729,0.76,0.093,1.295  c-0.352,0.296-0.724,0.572-1.105,0.829c-0.249,0.168-0.36,0.384-0.313,0.661c0.215,1.262,0.198,2.54,0.284,3.811  c0.032,0.472,0.245,0.736,0.709,0.847c0.722,0.173,1.244,0.856,2.061,0.82c0.136-0.006,0.249,0.16,0.245,0.318  c-0.015,0.601,0.434,0.716,0.865,0.91c0.34,0.153,0.862,0.23,0.841,0.738c-0.021,0.524-0.526,0.513-0.901,0.631  c-1.092,0.343-1.218,0.661-1.25,1.786c-0.019,0.672,0.21,1.454-0.608,2.006c-0.522,0.351-0.988,0.963-1.195,1.556  c-0.235,0.677-0.584,1.095-1.211,1.332c-0.414,0.157-0.666,0.451-0.787,0.862c-0.199,0.679-0.615,1.225-1.038,1.774  c-0.828,1.076-2.152,1.669-2.805,2.915c-0.805,1.536-2.423,1.203-3.726,1.584c-0.254,0.074-0.398-0.206-0.519-0.395  c-0.482-0.751-0.977-0.817-1.548-0.08c-0.466,0.601-0.985,1.138-1.524,1.664c-0.411,0.401-0.756,0.845-0.57,1.454  c0.189,0.619,0.767,0.812,1.307,0.844c0.583,0.034,0.587,0.308,0.508,0.724c-0.048,0.256-0.089,0.513-0.135,0.77  c-0.149,0.835,0.085,1.438,0.995,1.617c0.243,0.048,0.494,0.134,0.524,0.383c0.147,1.236,0.943,2.308,0.906,3.581  c-0.007,0.234,0.44,0.514-0.06,0.718c-0.427,0.175-0.926,0.522-1.296,0.177c-0.446-0.416-0.844-0.315-1.255-0.138  c-0.675,0.29-1.334,0.147-2.024,0.121c-0.949-0.035-2.07-0.699-2.818,0.513c-0.117,0.19-0.372,0.163-0.566,0.128  c-0.905-0.163-0.932,0.329-0.785,0.991c0.434-0.011,0.675-0.505,1.176-0.434c-0.209,0.363-0.68,0.459-0.554,0.968  c0.301,1.214,2.805,2.75,4.021,2.431c0.666-0.175,1.335-0.343,2.002-0.514c0.037,0.062,0.075,0.125,0.112,0.187  c-0.325,0.284-0.645,0.576-0.977,0.852c-0.943,0.783-2.05,0.998-3.237,0.896c-0.206-0.018-0.348-0.451-0.57-0.213  c-0.245,0.264,0.04,0.553,0.199,0.762c1.153,1.523,2.342,3.02,3.672,4.393c0.292,0.302,0.726,0.464,1.085,0.705  c0.188,0.126,0.371,0.112,0.579,0.073c1.084-0.202,2.121-0.527,3.111-1.026c0.827-0.416,1.257-1.05,1.351-1.959  c0.07-0.675,0.097-1.364,0.401-2c0.952,0.459-0.079,1.989,1.394,2.179c-0.783,0.703-0.913,1.372-0.453,2.22  c0.238,0.439,0.568,1.013,0.284,1.547c-0.739,1.391-0.577,2.842-0.395,4.304c0.013,0.103-0.112,0.246,0.145,0.3  c0.354,0.075,0.489,0.327,0.291,0.516c-0.51,0.488-0.184,0.975-0.064,1.439c0.386,1.499,0.927,2.975,0.965,4.533  c0.055,2.229,1.1,4.117,2.105,5.961c0.815,1.495,1.585,2.973,1.911,4.631c0.321,1.631,0.66,3.269,1.656,4.609  c1.837,2.473,2.868,5.269,3.539,8.219c0.445,1.955,1.611,3.309,3.291,4.257c0.975,0.55,2.809-0.347,2.912-1.441  c0.082-0.878,0.528-1.263,1.289-1.469c0.555-0.15,1.104-0.327,1.679-0.498c-0.067-0.095-0.184-0.194-0.216-0.316  c-0.198-0.758,1.349-2.9,2.131-2.895c0.755,0.005,0.994-0.228,0.855-1.018c-0.134-0.763,0.051-1.587-0.113-2.339  c-0.342-1.571,0.55-2.77,1.126-4.035c0.312-0.685,0.413-1.365,0.532-2.064c0.081-0.476-0.43-0.559-0.635-0.844  c-0.29-0.404,0.706-0.234,0.378-0.827c-0.637-1.151-0.285-2.475-0.469-3.712c-0.113-0.76,0.26-1.415,0.72-1.972  c0.44-0.533,0.996-0.908,1.707-0.391c0.31,0.225,0.406-0.052,0.519-0.22c0.243-0.359,0.441-0.748,0.688-1.103  c0.217-0.311,0.512-0.685,0.897-0.581c0.877,0.236,1.491-0.33,2.208-0.582c0.228-0.08,0.415-0.201,0.367-0.499  c-0.222-1.387,0.837-1.853,1.767-2.349c0.456-0.243,0.842-0.515,1.09-0.946c0.415-0.723,1.018-1.254,1.654-1.764  c1.513-1.212,2.535-2.813,3.561-4.423c0.212-0.333,0.381-1.345,1.192-0.487c0.057,0.06,0.277-0.004,0.409-0.048  c0.914-0.308,1.822-0.684,2.461-1.414c0.62-0.709,1.294-1.54,0.914-2.555c-0.32-0.858,0.026-1.227,0.68-1.575  c1.002-0.533,2.304-0.637,2.733-2.027c0.071,0.934,0.463,0.96,1.032,0.525c0.197-0.151,0.402-0.236,0.639-0.201  c0.713,0.104,0.687-0.358,0.599-0.809c-0.138-0.706-0.442-1.4-0.461-2.105c-0.031-1.121-0.601-1.965-1.134-2.858  c-0.16-0.268-0.182-0.574,0.002-0.896c0.491-0.861,0.424-1.02-0.506-1.431c-0.378-0.167-0.694-0.411-0.959-0.728  c-0.194-0.232-0.243-0.505-0.036-0.709c0.506-0.498,0.883-1.152,1.611-1.392c0.183-0.06,0.457,0.034,0.529-0.208  c0.093-0.311-0.271-0.317-0.408-0.48c-0.123-0.147-0.308-0.253-0.483-0.342c-1.614-0.824-1.709-1.137-0.782-2.629  c0.03-0.049,0.086-0.086,0.105-0.137c0.135-0.353,0.249-0.417,0.497-0.155c0.254,0.268,0.614,0.484,0.799,0.212  c0.338-0.495,0.492-0.15,0.67,0.05c0.251,0.282,0.474,0.581,0.834,0.742c0.203,0.091,0.386,0.169,0.487-0.116  c0.064-0.18,0.061-0.455,0.331-0.408c0.228,0.04,0.239,0.316,0.284,0.498c0.117,0.471,0.289,0.957,0.261,1.427  c-0.042,0.727,0.215,1.071,0.932,1.097c0.433,0.016,0.866,0.069,1.299,0.07c1.363,0.005,2.727-0.006,4.09-0.01  c0.56-0.002,0.944-0.032,0.767,0.84c-0.229,1.126-0.771,1.886-1.746,2.376c-1.02,0.512-1.262,1.24-0.971,2.304  c0.175,0.642,0.829,0.75,1.032,1.276c0.069,0.178,0.146,0.334,0.355,0.295c0.228-0.042,0.345-0.223,0.334-0.443  c-0.024-0.471,0.086-0.912,0.246-1.345c0.128-0.346,0.177-0.84,0.61-0.861c0.49-0.023,0.45,0.517,0.557,0.841  c0.484,1.47,0.891,2.964,1.134,4.493c0.087,0.55,0.491,0.788,0.868,0.805c0.372,0.017,0.391-0.494,0.471-0.823  c0.027-0.112,0.042-0.229,0.051-0.344c0.081-1.076-0.306-2.105,0.366-3.249c0.442-0.753,0.157-2.019-0.261-3.047  c0.663,0.049,1.258,0.1,1.853,0.132c0.284,0.016,0.532-0.081,0.584-0.399c0.213-1.301,1.317-2.403,0.851-3.863  c-0.063-0.197-0.033-0.466,0.149-0.653c0.932-0.96,0.89-2.134,0.75-3.337c-0.032-0.274-0.106-0.569,0.195-0.79  c0.914-0.671,1.579-1.621,2.526-2.257c0.722-0.485,1.428-1.082,2.274-0.195c0.059,0.062,0.208,0.037,0.503,0.081  c-0.935-0.921-0.931-1.68-0.067-2.501c0.533-0.506,0.156-1.27-0.611-1.341c-0.671-0.063-1.341-0.263-2.048,0.05  c0.031-0.526,0.337-0.79,0.469-1.127C90.861,27.026,90.354,26.6,89.604,26.82z" />

    <g id="crop" fill="#f9b282" transform="translate(18,24) rotate(15,72,72)">
        <path d="M58.341,11.425c-2.757,2.08-5.528,4.937-6.672,8.141c-1.023,2.864-1.208,6.118-0.045,9.078   c2.591-2.203,4.932-5.165,6.042-8.29C58.648,17.591,59.07,14.399,58.341,11.425z" />
        <path d="M49.54,20.942c1.206-1.91,2.141-4.209,2.175-6.464c0.028-1.848-0.764-3.813-2.142-5.092   c-1.366,1.79-2.474,4.045-2.486,6.302C47.076,17.649,48.081,19.619,49.54,20.942z" />
        <path d="M56.947,9.771C57.623,8.331,57.904,6.58,57.565,5c-1.596,1.187-3.066,2.728-3.951,4.506   c-0.721,1.449-0.86,3.277-0.418,4.834C54.73,13.114,56.115,11.542,56.947,9.771z" />
        <path d="M49.557,34.171c-1.243,2.949-1.604,6.337-0.686,9.535c2.754-1.84,5.279-4.576,6.495-7.551   c1.186-2.9,1.672-6.198,1.198-9.423C53.696,28.485,50.842,31.122,49.557,34.171z" />
        <path d="M53.385,42.08c-2.41,1.59-4.602,4.037-5.441,6.671c-0.849,2.666-0.756,5.729,0.301,8.492   c2.244-1.643,4.311-4.148,5.056-6.76C54.067,47.795,54.154,44.878,53.385,42.08z" />
        <path d="M51.64,56.095c-1.812,1.332-3.431,3.343-3.868,5.455c-0.464,2.242-0.182,4.654,0.833,6.854   c1.723-1.389,3.195-3.421,3.613-5.505C52.661,60.693,52.472,58.31,51.64,56.095z" />
        <path d="M48.66,71.84c-0.29,1.823,0.285,3.887,1.19,5.474c1.276-1.175,2.234-2.814,2.472-4.519   c0.255-1.826-0.216-3.784-1.018-5.454C49.954,68.457,48.936,70.108,48.66,71.84z" />
        <path d="M52.453,80.743c0.309-1.072,0.051-2.374-0.504-3.398c-1.177,0.625-2.114,1.536-2.414,2.541   c-0.325,1.091-0.011,2.347,0.622,3.415C51.241,82.682,52.167,81.736,52.453,80.743z" />
        <path d="M47.067,36.403c1.563-2.89,2.409-6.162,2.338-9.369c-0.061-2.742-1.44-5.736-3.419-7.723   c-1.93,2.713-3.055,5.931-2.984,9.165C43.066,31.397,44.877,34.412,47.067,36.403z" />
        <path d="M45.81,49.842c1.157-2.684,1.52-5.602,1.149-8.397c-0.342-2.576-1.957-5.197-3.898-7.013   c-1.458,2.592-2.054,5.549-1.644,8.318C41.809,45.394,43.635,48.062,45.81,49.842z" />
        <path d="M45.932,60.974c0.766-2.235,0.833-4.625,0.321-6.811c-0.5-2.139-2.011-4.215-3.753-5.692   c-0.968,2.195-1.149,4.605-0.627,6.795C42.393,57.442,44.065,59.542,45.932,60.974z" />
        <path d="M46.738,70.481c0.49-1.86,0.389-3.752-0.143-5.489c-0.531-1.731-1.907-3.401-3.409-4.564   c-0.611,1.855-0.577,3.748-0.041,5.492C43.685,67.68,45.169,69.346,46.738,70.481z" />
        <path d="M47.849,78.12c0.311-1.396,0.192-3.096-0.37-4.404c-0.62-1.443-1.708-2.709-2.97-3.641   c-0.392,1.451-0.279,3.034,0.259,4.412C45.341,75.951,46.569,77.21,47.849,78.12z" />
        <path d="M45.773,78c0,0-0.425,1.705,0.373,3.334c0.538,1.097,1.422,2.021,2.439,2.73c0,0,0.328-1.659-0.432-3.327   C47.657,79.647,46.74,78.696,45.773,78z" />
        <path d="M54.341,94.241c0,0-0.084-0.137-0.232-0.376c-0.075-0.119-0.163-0.265-0.262-0.434   c-0.099-0.169-0.214-0.358-0.332-0.569c-0.24-0.419-0.512-0.912-0.788-1.449c-0.141-0.267-0.277-0.548-0.418-0.832   c-0.136-0.286-0.277-0.576-0.408-0.87c-0.136-0.292-0.26-0.589-0.386-0.879c-0.119-0.293-0.242-0.58-0.346-0.862   c-0.11-0.281-0.208-0.555-0.299-0.815c-0.092-0.26-0.169-0.509-0.243-0.737c-0.066-0.23-0.134-0.442-0.181-0.627   c-0.047-0.187-0.093-0.345-0.124-0.485c-0.062-0.278-0.098-0.437-0.098-0.437c-0.038-0.17-0.204-0.281-0.376-0.248   c-0.176,0.033-0.291,0.203-0.258,0.378c0,0,0.03,0.16,0.083,0.44c0.025,0.139,0.07,0.316,0.114,0.515   c0.044,0.201,0.106,0.417,0.167,0.659c0.068,0.238,0.14,0.498,0.226,0.768c0.085,0.271,0.177,0.556,0.28,0.847   c0.098,0.294,0.214,0.591,0.326,0.896c0.119,0.302,0.237,0.61,0.366,0.913c0.124,0.305,0.259,0.606,0.388,0.903   c0.135,0.295,0.265,0.586,0.4,0.864c0.265,0.558,0.526,1.071,0.758,1.508c0.113,0.22,0.224,0.417,0.321,0.594   c0.096,0.177,0.182,0.329,0.254,0.454c0.144,0.251,0.225,0.394,0.225,0.394c0.002,0.004,0.006,0.01,0.008,0.014   c0.143,0.232,0.446,0.304,0.678,0.161c0.232-0.143,0.304-0.446,0.161-0.678L54.341,94.241z" />
    </g>

    <g id="sickle" transform="translate(10, 40)">
        <path id="blade" fill="#bdc3c7" d="M 39.18,54.45 C 39.18,54.45 39.18,48.37 39.18,48.37 39.18,48.37 44.84,48.37 44.84,48.37 47.10,55.59 53.25,60.89 60.61,60.89 69.80,60.89 77.22,55.34 77.22,45.16 77.15,41.27 76.09,37.67 74.25,34.70 78.64,38.66 81.47,44.74 81.47,51.53 81.47,63.55 72.70,70.58 61.81,70.58 52.62,70.58 44.98,63.65 42.79,54.24 42.79,54.24 39.18,54.45 39.18,54.45 Z" />
        <path id="handle" fill="#333" d="M 13.09,54.24 C 13.09,54.24 37.27,54.24 37.27,54.24 37.27,54.24 37.27,48.16 37.27,48.16 37.27,48.16 13.16,48.23 13.16,48.23 11.46,48.23 10.12,49.58 10.12,51.27 10.12,51.27 10.12,51.27 10.12,51.27 10.05,52.90 11.39,54.24 13.09,54.24 Z" />
    </g>
</svg>
